<svg height="20" viewBox="0 0 21 20" width="21" xmlns="http://www.w3.org/2000/svg"><path d="m60.85 51h-3.15c-1.73985 0-3.15 1.343-3.15 3v3c0 1.657 1.41015 3 3.15 3h3.15c1.73985 0 3.15-1.343 3.15-3v-3c0-1.657-1.41015-3-3.15-3m-11.55 0h-3.15c-1.73985 0-3.15 1.343-3.15 3v3c0 1.657 1.41015 3 3.15 3h3.15c1.73985 0 3.15-1.343 3.15-3v-3c0-1.657-1.41015-3-3.15-3m11.55-11h-3.15c-1.73985 0-3.15 1.343-3.15 3v3c0 1.657 1.41015 3 3.15 3h3.15c1.73985 0 3.15-1.343 3.15-3v-3c0-1.657-1.41015-3-3.15-3m-8.4 3v3c0 1.657-1.41015 3-3.15 3h-3.15c-1.73985 0-3.15-1.343-3.15-3v-3c0-1.657 1.41015-3 3.15-3h3.15c1.73985 0 3.15 1.343 3.15 3" fill-rule="evenodd" transform="translate(-43 -40)"/></svg>